 http://img3.dishonline.com/dish/dyn/cr/640/360/60/dd/60dda45d6e9c3fd132f15f638d276b29.jpg

The.Sex.Monster.1999.iNTERNAL.DVDRip.XviD

[plot]

A neurotic L.A. building contractor pushes his wife into entering into a three way sexual
relationship. Unfortunately for him, his wife gets more out of it than he does and becomes a
tigress seducing every female she meets including the contractor's secretary

[cast]

Mariel Hemingway ... Laura Barnes
Mike Binder ... Marty Barnes
Ren e Humphrey ... Didi
Taylor Nichols ... Billy
Melissa Lahlitah Crider ... Diva (as Missy Crider)
Christopher Lawford ... Dave Pembroke
Joanna Heimbold ... Evie Pembroke
Kevin Pollak ... Dr. Jerry Berman
Stephen Baldwin ... Murphy
Anita Barone ... Carol
Kara Zediker ... Ellen
Marisol Nichols ... Lucia
Holland Taylor ... Muriel
Melissa Denton ... Salon Customer
Noah Stone ... Danny

 
http://www.imdb.com/title/tt0159730/

Genres: Comedy
Subtitles: None
Date: 2012.04
Director: Mike Binder

Stats:
Format: AVI
Format/Info: Audio Video Interleave
File size: 701 MiB
Duration: 1h 33mn
Overall bit rate mode: Variable
Overall bit rate: 1 050 Kbps

Video
ID: 0
Format: MPEG-4 Visual
Format profile: Advanced Simple@L5
Format settings, BVOP: 2
Format settings, QPel: No
Format settings, GMC: No warppoints
Format settings, Matrix: Default (H.263)
Codec ID: XVID
Codec ID/Hint: XviD
Duration: 1h 33mn
Bit rate: 914 Kbps
Width: 624 pixels
Height: 336 pixels
Display aspect ratio: 1.857
Frame rate: 25.000 fps
Color space: YUV
Chroma subsampling: 4:2:0
Bit depth: 8 bits
Scan type: Progressive
Compression mode: Lossy
Bits/(Pixel*Frame): 0.174
Stream size: 610 MiB (87%)
Writing library: XviD 64

Audio
ID: 1
Format: MPEG Audio
Format version: Version 1
Format profile: Layer 3
Mode: Joint stereo
Mode extension: MS Stereo
Codec ID: 55
Codec ID/Hint: MP3
Duration: 1h 33mn
Bit rate mode: Variable
Bit rate: 123 Kbps
Channel(s): 2 channels
Sampling rate: 48.0 KHz
Compression mode: Lossy
Stream size: 82.3 MiB (12%)
Alignment: Aligned on interleaves
Interleave, duration: 24 ms (0.60 video frame)
Interleave, preload duration: 146 ms


[trailer]

Take out all the dots [.] and space  

video: you + tube
./w.a.t.c..c.h.?.v.=.
a6ImDMA2yzI


...http://www .... y.o.u. .t.u.b.e. ./w.a.t.c..c.h.?.v.=.. . a6ImDMA2yzI]